<svg id="Layer_1" data-name="Layer 1" xmlns="http://www.w3.org/2000/svg" viewBox="0 0 160.71 177.53"><defs><style>.cls-1{fill:#fff;}</style></defs><title>Artboard 2</title><path class="cls-1" d="M157.52,92.13c9.58-17-4-25.72-19.93-22.74-12.81,2.4-25.81,5.39-38.38,8.84.13-3.81,8.66-19.85,7.58-21.43-4.05-5.91-10.66,7.32-13.82,9.79-9.28,7.3-31.25,20.87-42.85,12.5-7.69-5.54-7.2-17.45-1.62-24.19,3.73-4.5,8-4.18,14.17-5.59C76.39,46.15,90.14,41.73,102.55,35c8.47-4.59,26-13.67,21.53-25.5C119.29-3.23,102.34-1.08,93,3.94,77.28,12.4,66.12,25.81,55.47,39.77c-1.82,2.38-5.85,9.51-8.06,10.93-4.34,2.81-11-.49-14.56,2.61.37,1,12.48-1,13.9-.53C41.81,62.25,29,83.89,46,87c15.09,2.73,38.71-10.83,50.49-18.47C96,74,97.29,76.64,94.17,79.7c-2,1.94-7.76,2.46-10.62,3.52-6,2.23-13.31,4.7-18.56,8.53-17.83,13,11.72,11.24,10.71,5.54-.35-2-11,4.18-9.83-1.65,1-4.94,26.94-12.45,30.55-13.64.21,5.53.56,11.11.64,16.64s1.09,13.58-.19,18.92c-2.59,10.79,3.21-.14-4.26,7.41-3.45,3.49-24.43,10.74-24.67,15.31-.2,4.05,13,2.88,16.58,3.51C96.69,146,94.65,150,86.78,158.51c-5.17,5.62-12.28,9.38-19.52,11.52C43.73,177,7.36,167.27,7.38,138.26A38.11,38.11,0,0,1,11,122.6c1.26-2.84,1.52-3.81,3-5.94,1.35-1.9,17-12.75,17-12.43,0-4.77-17.2,6.19-19,8.07a47.88,47.88,0,0,0-7.73,10.82C-3,137.06-1,152.86,10.5,164.06,33.42,186.41,87.26,181,96.65,147.5a194.5,194.5,0,0,1,25.63,13.61c5.62,3.47,11.77,6.14,4.51-.57-7.07-6.53-20.28-7.93-26.54-14.59-3.81-4-2.64-.4-1.56-7.87.18-1.26.16-1.7.32-3.18,1.1-10.17,2.4-9.94,11.81-15.13s18.78-9.82,28.3-14.5C142,103.86,156.94,97.45,157.52,92.13Zm-56.9,25.23a122,122,0,0,0,.43-17.7c-.25-4.25-3.24-11.48-1.64-15.8,2.67-7.2,33.72-12.12,43.66-8.47,8.68,3.18,11.45,13.23,5.46,19.85-11,12.18-33.88,17.67-48.22,25.36C100.4,119.52,100.52,118.44,100.62,117.36Zm53-30.19q-1.59-2.55,0-3A4.22,4.22,0,0,1,153.67,87.17Zm-4.54-15.5h0Zm.61,5v0l-.08-.08Zm-104.66.11c-.31.31-.51,0-.6-1C44.66,76.08,44.86,76.43,45.08,76.77ZM118.53,10c0,.08,0,.16.08.23-.14-.27-.31-.53-.47-.79C118.28,9.62,118.41,9.81,118.53,10Zm-6.94,16.24c-16.84,12.49-39.36,20-59.94,23C60.44,33,78.23,12.3,95.74,5.76,103.15,3,110.87,2,114.87,10,117.58,15.37,116.6,22.53,111.59,26.24ZM62.86,98.85C63,98.55,63.19,98.77,62.86,98.85Zm18,41.77c-14.48.75,15.52-12.62,15-12.34-.71,5-1.61,10-2,15.05C89.41,141.73,85.51,141.29,80.88,140.62ZM3.56,142.31a2.09,2.09,0,0,0,0,.25C3.41,142.37,3.41,142.29,3.56,142.31ZM11,117c-.16.14-.31.3-.46.45A3.92,3.92,0,0,1,11,117Z"/><path class="cls-1" d="M139,166.14a1.58,1.58,0,1,0,0,3.16A1.58,1.58,0,1,0,139,166.14Z"/></svg>